<?xml version="1.0" encoding="UTF-8"?>
<svg id="Capa_2" data-name="Capa 2" xmlns="http://www.w3.org/2000/svg" viewBox="0 0 130.04 138.58">
  <defs>
    <style>
      .cls-1 {
        fill: #fff4e3;
      }

      .cls-2 {
        fill: #c14729;
      }
    </style>
  </defs>
  <g id="Capa_1-2" data-name="Capa 1">
    <g>
      <g>
        <path class="cls-2" d="M118.44,4.94c.22.43.43.87.6,1.32l.44,1.27c.24.91.36,1.41.48,2.2l.09.72c.04.27.98,7.15-4.74,12.47,1.65,2.54,2.46,5.56,2.29,8.62-.45,7.91-7.25,13.97-15.16,13.54-.59-.03-1.17-.11-1.75-.21,2.29,2.08,5.24,3.36,8.44,3.54,7.56.44,14.03-5.36,14.46-12.91.18-3.11-.71-6.17-2.5-8.69,5.94-5.13,5-12.01,4.95-12.29l-.08-.7c-.11-.74-.22-1.2-.48-2.18l-.4-1.14c-1.11-2.87-3.29-5.44-5.98-7.07l-2.05-1.24,1.12,2.12c.11.21.19.42.28.64Z"/>
        <path class="cls-2" d="M130.03,129.62c0-2.33-.6-4.65-1.72-6.71-1.21-2.24-2.98-4.09-5.14-5.4,2.27-2.65,3.69-5.88,4.11-9.38.57-4.69-.73-9.31-3.64-13.03-1.86-2.36-4.23-4.17-6.92-5.32,3.41,3.8,5.23,8.99,4.57,14.44-.41,3.38-1.71,6.51-3.78,9.14,1.97,1.33,3.59,3.12,4.74,5.24,1.17,2.15,1.79,4.58,1.8,7.02v2.11s-1.9-.91-1.9-.91c-1.87-.89-3.87-1.46-5.94-1.71-.64-.08-1.32-.12-2.01-.14-4.19-.09-8.09.61-11.95,2.14-1.53.61-3.04,1.25-4.55,1.9-3.58,1.53-7.27,3.11-11.18,4.12-2.74.71-5.48,1.26-8.14,1.65-2.07.31-4.39.46-6.93.46-3.08,0-6.5-.22-10.23-.67-7.48-.9-14.59-2.79-21.28-5.64,8.56,4.75,17.95,7.77,28.01,8.98,3.7.45,7.1.67,10.15.67,2.51,0,4.8-.15,6.84-.45,2.63-.38,5.35-.94,8.07-1.64,3.86-1,7.53-2.57,11.09-4.09,1.52-.65,3.03-1.3,4.57-1.91,3.95-1.56,7.94-2.28,12.21-2.18.71.01,1.41.06,2.08.14,2.14.26,4.21.85,6.14,1.77l.95.45v-1.06Z"/>
        <path class="cls-2" d="M32.74,62.62c-2.83,23.52,6,45.41,21.98,54.5-12.15-10.84-18.45-30.1-15.99-50.58,3.6-29.9,24.86-52.03,47.37-49.31,2.65.32,5.4.77,8.02,1.55-4.11-3.16-9.63-4.27-14.76-4.89-22.16-2.67-43.08,19.2-46.63,48.73Z"/>
      </g>
      <path class="cls-1" d="M97.39,105.03c-2.68,6.81-7.98,12.17-14.53,15-1.53.62-3.08,1.14-4.66,1.53-3.85.98-7.84,1.27-11.87.78-4.36-.52-8.45-1.92-12.2-4.04-15.96-9.04-25.65-31.29-22.7-55.84,3.65-30.32,25.19-52.65,48.11-49.9,7.05.85,14.63,2.58,18.92,8.83,2.07,3.02,2.59,7.03.73,10.27-.8,1.38-1.96,2.54-3.34,3.33-.43.25-4.13,1.85-4.43,1.2,1.96,4.23,6.13,7.27,11.1,7.55,7.19.41,13.35-5.09,13.76-12.28.19-3.29-.86-6.36-2.75-8.76,6.26-4.99,5.2-12.1,5.2-12.1l-.08-.68c-.11-.72-.21-1.17-.45-2.06l-.39-1.12c-1.14-2.94-3.33-5.31-5.7-6.74.64,1.21.93,2.62.76,4.08-.43,3.6-3.56,6.22-7.12,6.09-.19.05-.85-.17-1.01-.23-3.42-1.22-6.22-2.77-11.02-4.65-4.44-1.73-9.87-3.19-16.46-3.98-11.98-1.44-23.57-.1-34.75,4.03-11.19,4.13-20.57,10.81-28.16,20.06C6.74,34.64,2.16,45.84.57,59.01c-1.6,13.3.16,25.33,5.27,36.1,5.11,10.77,12.62,19.46,22.51,26.06,9.89,6.6,20.9,10.63,33.01,12.09,6.72.81,12.32.88,16.81.22,2.63-.38,5.29-.93,8-1.62,5.42-1.4,10.39-3.92,15.58-5.97,4.02-1.59,8.14-2.32,12.47-2.23.71.02,1.42.06,2.14.15,2.26.27,4.4.91,6.35,1.83,0-2.16-.53-4.36-1.64-6.39-1.33-2.45-3.31-4.33-5.6-5.54,2.4-2.55,4.05-5.87,4.5-9.63,1.12-9.33-5.53-17.8-14.85-18.92-2.59-.31-5.12-.02-7.44.76.08.22.16.44.23.66l.03.07c1.2,3.65,1.64,7.62,1.15,11.69-.28,2.35-.86,4.6-1.69,6.71"/>
    </g>
  </g>
</svg>