<?xml version="1.0" encoding="UTF-8"?>
<svg id="Capa_2" data-name="Capa 2" xmlns="http://www.w3.org/2000/svg" viewBox="0 0 186.26 24.97">
  <defs>
    <style>
      .cls-1 {
        fill: #fff4e3;
      }
    </style>
  </defs>
  <g id="Capa_1-2" data-name="Capa 1">
    <g>
      <path class="cls-1" d="M17.52,9.04c-.26-1.88-.9-3.31-1.91-4.29-1.02-.98-2.33-1.47-3.95-1.47-1.14,0-2.16.25-3.06.76-.9.51-1.65,1.2-2.27,2.07s-1.08,1.89-1.41,3.04c-.32,1.15-.49,2.39-.49,3.71,0,1.92.31,3.62.92,5.08.62,1.47,1.48,2.62,2.59,3.46s2.41,1.26,3.9,1.26c1.38,0,2.75-.34,4.1-1.02,1.35-.68,2.47-1.65,3.35-2.9l1.33,1.2c-1.02,1.38-2.09,2.43-3.24,3.16-1.14.72-2.26,1.21-3.35,1.47-1.09.26-2.08.39-2.96.39-1.66,0-3.17-.3-4.52-.89-1.35-.59-2.52-1.41-3.5-2.46-.98-1.05-1.74-2.27-2.27-3.66-.53-1.39-.79-2.9-.79-4.52,0-1.49.23-2.96.7-4.4.46-1.45,1.17-2.75,2.1-3.92.94-1.17,2.12-2.1,3.54-2.8,1.43-.7,3.08-1.05,4.96-1.05.95,0,1.94.15,2.98.44,1.04.29,2.01.72,2.91,1.28l-.13-1.49h2.23v7.54h-1.78Z"/>
      <path class="cls-1" d="M31.8,24.45c-.06-.32-.1-.6-.11-.83-.01-.23-.03-.49-.05-.79-.73.73-1.52,1.27-2.35,1.62s-1.69.52-2.57.52c-1.47,0-2.6-.4-3.38-1.2-.79-.8-1.18-1.78-1.18-2.95,0-1.04.28-1.92.84-2.64s1.29-1.32,2.2-1.78c.91-.46,1.91-.82,3.01-1.07,1.1-.25,2.19-.38,3.27-.41v-1.78c0-.63-.07-1.2-.21-1.73s-.39-.95-.76-1.26c-.37-.31-.91-.47-1.62-.47-.48.02-.96.12-1.44.31-.49.18-.87.47-1.15.86.17.19.28.41.32.63.04.23.06.43.06.6,0,.39-.15.79-.45,1.21-.3.42-.79.62-1.46.6-.58-.02-1.03-.23-1.34-.62-.31-.39-.47-.85-.47-1.39,0-.82.3-1.54.89-2.15.59-.62,1.4-1.1,2.41-1.46,1.01-.36,2.15-.53,3.4-.53,1.86,0,3.28.49,4.27,1.46.99.97,1.48,2.53,1.46,4.66v2.06c0,.62,0,1.23-.02,1.85s-.02,1.3-.02,2.06c0,.32-.01.73-.03,1.21-.02.49-.05.97-.1,1.44.39-.04.78-.07,1.18-.08.4,0,.73-.03.99-.05v2.1h-5.6ZM31.44,16.84c-.65.04-1.28.15-1.91.31s-1.19.38-1.68.66c-.5.28-.89.63-1.18,1.05-.29.42-.43.9-.41,1.44.02.67.24,1.16.65,1.47.41.31.88.47,1.42.47.63,0,1.19-.13,1.7-.39.51-.26.98-.6,1.41-1.04v-3.98Z"/>
      <path class="cls-1" d="M46.05,24.97c-1.25,0-2.27-.24-3.06-.71s-1.37-1.24-1.73-2.28c-.37-1.05-.55-2.42-.55-4.13v-4.4c0-.37.01-.78.03-1.23.02-.45.04-.91.06-1.36-.35.02-.73.04-1.17.05-.43.01-.79.03-1.07.05v-2.07h.55c1.19,0,2.11-.1,2.77-.31.66-.21,1.11-.42,1.34-.63h1.49v9.91c0,1.55.21,2.71.63,3.46s1.11,1.13,2.06,1.13c.65-.02,1.29-.22,1.93-.58.64-.37,1.15-.8,1.54-1.29v-6.99c0-.43.01-.88.03-1.34s.05-.92.1-1.38c-.35.02-.74.04-1.18.05-.44.01-.8.03-1.08.05v-2.07h.84c.99,0,1.82-.11,2.48-.32.66-.21,1.1-.42,1.31-.62h1.49v11.62c0,.3-.01.75-.03,1.33-.02.58-.05,1.11-.1,1.59.37-.04.76-.07,1.17-.08.41,0,.74-.03,1-.05v2.1h-5.63c-.04-.3-.08-.6-.11-.91-.03-.3-.06-.59-.08-.88-.67.6-1.42,1.14-2.25,1.6-.83.46-1.75.7-2.77.7Z"/>
      <path class="cls-1" d="M65.57,24.97c-1.29,0-2.45-.33-3.46-1s-1.81-1.62-2.38-2.85-.86-2.68-.86-4.34c0-1.75.34-3.3,1.04-4.66.69-1.36,1.65-2.43,2.87-3.21s2.63-1.17,4.23-1.17c.63,0,1.21.07,1.76.21.55.14,1.03.3,1.44.47v-2.88c0-.32,0-.72.02-1.2,0-.47.04-.95.08-1.42-.34.02-.74.04-1.18.06s-.81.04-1.12.06V.94c.99,0,1.8-.05,2.43-.15.63-.1,1.12-.22,1.47-.37.36-.15.61-.29.76-.42h1.49v19.82c0,.32-.01.73-.03,1.21-.02.49-.05.97-.1,1.44.37-.04.75-.07,1.15-.08.4,0,.74-.03,1.02-.05v2.1h-5.63c-.04-.26-.08-.52-.11-.79-.03-.27-.07-.52-.11-.76-.67.71-1.4,1.24-2.2,1.57-.8.33-1.65.5-2.56.5ZM67.09,22.47c.6,0,1.19-.17,1.75-.5.56-.33,1.01-.75,1.36-1.25-.02-.3-.03-.61-.03-.92v-.96l.03-8.29c-.32-.26-.73-.46-1.23-.6-.5-.14-1-.21-1.52-.21-1.02.02-1.84.34-2.48.96s-1.1,1.42-1.39,2.41c-.29.99-.43,2.07-.4,3.24,0,1.06.14,2.05.42,2.98.28.93.71,1.68,1.28,2.27s1.31.87,2.22.87Z"/>
      <path class="cls-1" d="M78.43,22.73c.63,0,1.07-.13,1.33-.41.26-.27.42-.65.49-1.15.06-.5.1-1.06.1-1.68v-6.06c0-.37.01-.77.03-1.21s.05-.9.1-1.38c-.37.02-.77.04-1.2.07-.43.02-.79.04-1.07.06v-2.1c.97,0,1.78-.05,2.41-.15.64-.1,1.13-.22,1.49-.37.36-.15.61-.29.76-.42h1.46v11.88c0,.35,0,.76-.02,1.25-.01.49-.05.96-.11,1.41.34-.04.72-.07,1.12-.08.4,0,.73-.02.99-.02v2.07h-7.87v-1.72ZM82.15,5.15c-.63,0-1.16-.23-1.59-.7s-.65-1.03-.65-1.7.22-1.24.66-1.72c.44-.47.97-.71,1.57-.71s1.15.24,1.57.71c.42.48.63,1.05.63,1.72s-.21,1.24-.62,1.7c-.41.46-.94.7-1.59.7Z"/>
      <path class="cls-1" d="M88.08,22.73c.63,0,1.07-.13,1.34-.41s.43-.65.49-1.15c.05-.5.08-1.06.08-1.68V5.5c0-.37.01-.77.03-1.21s.05-.9.1-1.38c-.37.02-.77.04-1.2.06-.43.02-.8.04-1.1.06V.94c.99,0,1.81-.05,2.45-.15.64-.1,1.13-.22,1.49-.37.36-.15.61-.29.76-.42h1.46l.03,19.82c0,.35-.01.76-.03,1.25s-.06.96-.13,1.41c.37-.04.74-.07,1.13-.08.39,0,.71-.02.97-.02v2.07h-7.87v-1.72Z"/>
      <path class="cls-1" d="M97.76,22.73c.63,0,1.07-.13,1.34-.41s.43-.65.49-1.15c.05-.5.08-1.06.08-1.68V5.5c0-.37.01-.77.03-1.21s.05-.9.1-1.38c-.37.02-.77.04-1.2.06-.43.02-.8.04-1.1.06V.94c.99,0,1.81-.05,2.45-.15.64-.1,1.13-.22,1.49-.37.36-.15.61-.29.76-.42h1.46l.03,19.82c0,.35-.01.76-.03,1.25s-.06.96-.13,1.41c.37-.04.74-.07,1.13-.08.39,0,.71-.02.97-.02v2.07h-7.87v-1.72Z"/>
      <path class="cls-1" d="M115.86,24.97c-1.53,0-2.93-.34-4.18-1.02s-2.24-1.64-2.96-2.88-1.08-2.69-1.08-4.36c0-1.75.37-3.3,1.1-4.66.73-1.36,1.72-2.42,2.96-3.17,1.24-.76,2.61-1.13,4.1-1.13s2.92.35,4.15,1.04c1.23.69,2.21,1.65,2.93,2.88.72,1.23,1.08,2.69,1.08,4.37,0,1.77-.35,3.33-1.05,4.68-.7,1.35-1.66,2.4-2.88,3.14-1.22.74-2.61,1.12-4.16,1.12ZM116.02,22.99c.97,0,1.72-.3,2.23-.91.52-.6.88-1.38,1.08-2.31.21-.94.31-1.91.31-2.9,0-.84-.07-1.69-.21-2.56-.14-.86-.36-1.65-.66-2.35-.3-.7-.7-1.26-1.2-1.68-.5-.42-1.1-.63-1.81-.63-.95.02-1.71.33-2.27.94-.56.6-.97,1.37-1.21,2.3-.25.93-.37,1.91-.37,2.95,0,1.17.14,2.3.42,3.42.28,1.11.72,2.02,1.33,2.72.6.7,1.39,1.04,2.36,1.02Z"/>
      <path class="cls-1" d="M135.26,24.45v-1.78c.6-.02,1.07-.13,1.39-.32s.55-.52.68-.99c.13-.46.19-1.12.19-1.96V6.61c0-.58.02-1.12.05-1.62.03-.5.06-.88.08-1.17-.37.02-.79.04-1.26.05-.48.01-.85.03-1.13.05V1.78c1.38-.02,2.77-.03,4.18-.03s2.82-.01,4.24-.03c2.55-.02,4.57.44,6.06,1.39s2.19,2.41,2.1,4.37c-.02.65-.22,1.28-.58,1.91-.37.63-.91,1.19-1.62,1.68-.71.5-1.61.87-2.69,1.13v.03c2.22.24,3.88.9,4.96,1.99,1.08,1.09,1.62,2.36,1.62,3.8s-.33,2.55-1,3.5c-.67.95-1.59,1.67-2.77,2.17-1.18.5-2.51.75-4,.75h-10.49ZM141.47,22.47c.37.02.75.03,1.15.03s.78,0,1.15-.02.68-.02.94-.02c1.42-.04,2.51-.46,3.25-1.25s1.12-1.85,1.12-3.19c0-1.1-.22-1.96-.66-2.59s-1.01-1.07-1.72-1.33c-.7-.26-1.45-.39-2.25-.39h-1.52c-.43,0-.88.02-1.33.06v5.96c0,.58-.01,1.11-.03,1.59s-.05.85-.1,1.13ZM141.6,11.82l1.91-.03c1.01-.02,1.81-.24,2.4-.66s1-.97,1.26-1.65c.26-.68.39-1.42.39-2.22-.02-.95-.23-1.69-.63-2.22-.4-.53-.89-.9-1.47-1.12s-1.19-.31-1.81-.29c-.45,0-.83.06-1.13.19-.3.13-.53.4-.68.81s-.23,1.03-.23,1.85v5.34Z"/>
      <path class="cls-1" d="M165.21,24.45c-.06-.32-.1-.6-.11-.83-.01-.23-.03-.49-.05-.79-.73.73-1.52,1.27-2.35,1.62s-1.69.52-2.57.52c-1.47,0-2.6-.4-3.38-1.2-.79-.8-1.18-1.78-1.18-2.95,0-1.04.28-1.92.84-2.64s1.29-1.32,2.2-1.78c.91-.46,1.91-.82,3.01-1.07,1.1-.25,2.19-.38,3.27-.41v-1.78c0-.63-.07-1.2-.21-1.73s-.39-.95-.76-1.26c-.37-.31-.91-.47-1.62-.47-.48.02-.96.12-1.44.31-.49.18-.87.47-1.15.86.17.19.28.41.32.63.04.23.06.43.06.6,0,.39-.15.79-.45,1.21-.3.42-.79.62-1.46.6-.58-.02-1.03-.23-1.34-.62-.31-.39-.47-.85-.47-1.39,0-.82.3-1.54.89-2.15.59-.62,1.4-1.1,2.41-1.46,1.01-.36,2.15-.53,3.4-.53,1.86,0,3.28.49,4.27,1.46.99.97,1.48,2.53,1.46,4.66v2.06c0,.62,0,1.23-.02,1.85s-.02,1.3-.02,2.06c0,.32-.01.73-.03,1.21-.02.49-.05.97-.1,1.44.39-.04.78-.07,1.18-.08.4,0,.73-.03.99-.05v2.1h-5.6ZM164.85,16.84c-.65.04-1.28.15-1.91.31s-1.19.38-1.68.66c-.5.28-.89.63-1.18,1.05-.29.42-.43.9-.41,1.44.02.67.24,1.16.65,1.47.41.31.88.47,1.42.47.63,0,1.19-.13,1.7-.39.51-.26.98-.6,1.41-1.04v-3.98Z"/>
      <path class="cls-1" d="M172.79,22.73c.63,0,1.07-.13,1.33-.41.26-.27.42-.65.49-1.15.06-.5.1-1.06.1-1.68v-6.09c0-.39.01-.8.03-1.23s.05-.87.1-1.33c-.37.02-.77.04-1.2.05-.43.01-.79.03-1.07.05v-2.07h1.2c.86,0,1.59-.1,2.17-.31s.99-.42,1.23-.63h1.36c.04.26.08.67.1,1.23.02.56.03,1.12.03,1.68.5-.65,1.01-1.2,1.55-1.67.54-.46,1.1-.82,1.67-1.07.57-.25,1.16-.37,1.76-.37.69,0,1.3.19,1.83.58s.79,1.01.79,1.88c0,.28-.07.58-.21.91-.14.32-.36.59-.65.81-.29.22-.69.32-1.18.32-.45,0-.88-.15-1.28-.44-.4-.29-.61-.76-.63-1.41-.45-.02-.92.14-1.41.49-.49.35-.92.77-1.31,1.26-.39.5-.69,1-.91,1.52l.03,6.15c0,.35-.01.76-.03,1.25s-.05.96-.1,1.41c.34-.04.71-.07,1.1-.08.39,0,.71-.02.97-.02v2.07h-7.87v-1.72Z"/>
    </g>
  </g>
</svg>