<?xml version="1.0" encoding="UTF-8"?>
<svg id="Capa_2" data-name="Capa 2" xmlns="http://www.w3.org/2000/svg" viewBox="0 0 605.48 162.52">
  <defs>
    <style>
      .cls-1 {
        fill: #fff4e3;
      }

      .cls-2 {
        fill: #c14729;
      }
    </style>
  </defs>
  <g id="Capa_1-2" data-name="Capa 1">
    <g>
      <g>
        <path class="cls-2" d="M310.95,139.32c-3-2.24-3.55-3.74-4.5-6.32-2.69-7.32-1.81-64.71-.82-76.98.21-2.63.81-6.27,2.46-8.68l.88-1.28-7.85-3.23-.19.27c-1.55,2.27-2.12,5.77-2.33,8.3-.97,11.93-1.82,69.6.77,76.65.93,2.53,1.42,3.86,4.23,5.97l3.76,2.81h-29.32l-2.68-5c-3.97,4.07-10.68,6.89-17.84,7.36-.73.05-1.45.07-2.16.07-2.54,0-4.97-.31-7.24-.9,3.86,3.1,9.14,4.81,15.05,4.81.69,0,1.4-.02,2.11-.07,5.44-.36,10.58-2.11,14.41-4.72l6.63,2.34h26.5l-1.88-1.41Z"/>
        <path class="cls-2" d="M258.34,43.86c-.79,2.13-1.48,3.96-1.63,6.21-1.03,15.56-2.84,62.98-.6,67.65,1.21,2.51,4.03,3.36,6.65,3.29-1.68-10.12.1-53.18.97-66.31.16-2.37.86-4.25,1.68-6.44l.81-2.2-7.5-3.24-.38,1.03Z"/>
      </g>
      <g>
        <path class="cls-2" d="M185.38,108.52c2.49-4.38,7.06-7.53,11.64-10.23v-7.38c-.87.51-1.78,1.03-2.71,1.55-5.68,3.22-11.55,6.55-14.52,11.77-3.02,5.32-3.2,10.34-.48,13.78,1.14,1.44,2.68,2.47,4.38,3.03-1.5-3.49-.94-7.91,1.68-12.51Z"/>
        <path class="cls-2" d="M231.58,139.43c-3.06-3.53-4.21-5.62-4.99-11.05-1.86-12.89-1.49-34.28-1.25-48.44.1-5.98.18-10.71.05-12.72-.7-10.48-5.59-16.23-10.64-19.38,2.99,3.9,4.77,8.86,5.15,14.65.14,2.04.06,6.55-.05,12.78-.24,14.13-.6,35.48,1.25,48.31.76,5.28,1.81,7.2,4.8,10.66l2.24,2.58h-27.91l-2.91-5.7c-5.56,5.18-13.43,8.13-21.05,8.13-2.8,0-5.57-.4-8.18-1.23-.44-.14-.87-.3-1.3-.46,2.14,1.94,4.75,3.43,7.8,4.4,2.54.81,5.23,1.2,7.96,1.2,6.51,0,13.19-2.24,18.4-6.19l6.03,3.76h25.72l-1.12-1.29Z"/>
        <path class="cls-2" d="M170.71,79.4c-.09-.02-.18-.04-.27-.06,1.75,2.07,4.03,3.46,6.68,3.98,1.86.37,3.77.26,5.61-.26.85-.32,1.69-.65,2.53-.99,1.97-1.01,3.8-2.52,5.31-4.46l.43-.55-.5-.49c-3.63-3.52-4.99-9.1-3.24-13.27,1.37-3.27,4.41-5,8.4-4.93.03,0,.06,0,.09,0-.33-.72-.74-1.37-1.25-1.92-1.2-1.29-2.88-1.94-5.13-1.99-3.69-.1-6.42,1.5-7.66,4.46-1.63,3.88-.34,9.1,3.07,12.41l1,.97-.86,1.1c-3.67,4.71-9.11,7-14.22,6Z"/>
      </g>
      <g>
        <path class="cls-2" d="M556.28,90.24l.04-2.9c.1-9.73.32-32.39,11.84-34.27-.6-.98-1.27-1.84-2.06-2.5-1.49-1.25-3.23-1.74-5.34-1.46h0c-11.16,1.43-11.38,23.95-11.47,33.56l-.04,2.9c-.15,8.97-.54,32.8,9.13,34.86.58.12,1.14.19,1.68.22-4.15-8.02-3.91-22.94-3.79-30.4Z"/>
        <path class="cls-2" d="M604.87,79.23c-.42-3.21-1.05-6.4-1.88-9.53-3.38-12.75-9.87-21.72-18.62-26.24,5.21,5.09,9.16,12.29,11.57,21.36,6.58,24.8-.56,59.16-19.95,68.02-6.27,2.86-11.8,4-16.65,4-3.08,0-5.87-.47-8.4-1.23,4.08,2.85,9.45,5.13,16.22,5.13,31.13,0,41.03-36.14,37.71-61.5Z"/>
      </g>
      <path class="cls-2" d="M433.76,138.52l-.47-.47c-1.77-1.75-3.78-3.74-4.7-6.02-2.65-6.59-1.79-66.64-.88-77.06.04-.43.07-.86.1-1.28.17-2.35.32-4.38,1.54-6.41l.74-1.24-6.61-5.16-1.27,2.12c-1.12,1.87-1.26,3.72-1.43,6.06-.03.42-.06.85-.1,1.29-1.07,12.19-1.66,70.51.83,76.7.85,2.13,2.72,3.97,4.52,5.75l.48.47,4.17,3.53h-36.88l4.27,3.9h38.29l-2.59-2.2Z"/>
      <path class="cls-2" d="M419.52,10.09c1.83,2.48,2.93,5.54,2.93,8.85,0,8.25-6.71,14.96-14.96,14.96-.72,0-1.43-.07-2.12-.17,2.56,2.51,6.06,4.07,9.93,4.07,7.82,0,14.18-6.36,14.18-14.18,0-6.35-4.19-11.73-9.95-13.53Z"/>
      <g>
        <path class="cls-2" d="M390.57,139.44c-.42-.51-.82-.97-1.19-1.4-2.79-3.26-3.94-4.61-4.69-9.96V14.05c-.03-3.14.47-4.33,1.15-5.97.26-.63.55-1.31.84-2.17l.46-1.38-7.56-2.98c-.29.85-.57,1.54-.83,2.15-.68,1.62-1.12,2.69-1.1,5.66v113.93c.73,5.15,1.77,6.36,4.51,9.56.37.43.76.89,1.19,1.4l2.15,2.56h-27.47s-3-6.07-3-6.07c-5.09,5.65-10.72,8.48-16.83,8.48-1.9,0-3.84-.28-5.83-.83,1.56,1.2,3.22,2.18,5.01,2.91,2.96,1.21,5.83,1.81,8.59,1.81,4.91,0,9.51-1.93,13.76-5.72l6.59,3.33h25.31s-1.07-1.28-1.07-1.28Z"/>
        <path class="cls-2" d="M349.97,55.48c-1.42-1.16-3.41-1.5-6.08-1.05-1.64.28-3.08,1.34-4.38,3.25-7.55,11.06-6.22,43.49-4.41,52.22,1.64,7.91,6.15,11.7,9.84,12.01-1.2-1.88-2.19-4.25-2.8-7.17-1.83-8.81-3.14-41.58,4.53-52.82,1.41-2.06,3.06-3.27,4.89-3.58.12-.02.23-.03.34-.05-.47-1.15-1.09-2.12-1.93-2.82Z"/>
      </g>
      <path class="cls-2" d="M479.1,138.52l-.47-.47c-1.77-1.75-3.78-3.74-4.7-6.02-2.11-5.26-2.05-63.29-1.73-93.25v-17.91c-.04-4.42,1.99-12.33,3.09-14.93l.63-1.48-7.69-2.95-.02.05c-1.09,2.55-3.07,10.29-3.04,14.62v17.91c-.37,34.76-.23,88.19,1.68,92.96.85,2.13,2.72,3.97,4.52,5.76l.48.47,4.17,3.53h-36.87l4.27,3.9h38.29l-2.59-2.2Z"/>
      <path class="cls-2" d="M524.54,138.52l-.47-.47c-1.77-1.75-3.78-3.74-4.7-6.02-2.11-5.26-2.05-63.29-1.73-93.25v-17.91c-.04-4.42,1.99-12.33,3.09-14.93l.63-1.48-7.69-2.95-.02.05c-1.08,2.55-3.07,10.29-3.04,14.62v17.91c-.37,34.76-.23,88.19,1.68,92.96.85,2.13,2.72,3.97,4.53,5.76l.43.42,4.22,3.58h-36.88l4.27,3.9h38.29l-2.59-2.2Z"/>
      <path class="cls-1" d="M278.98,135.26l-3.32-6.2h0c-6.53,9.25-27.14,12.62-36.7,2.32-10.11-10.9-3.8-60.07-5.84-76.64-.67-5.49-1.93-8.08-6.04-11.4l30.19-1.13c-.98,2.68-1.94,4.88-2.13,7.76-.63,9.55-3.15,62.8-.45,68.43,2.06,4.28,7.78,4.89,11.7,3.56,5.29-1.78,8.7-6.95,8.77-12.53l.69-53.65c.03-2.09-.17-4.18-.72-6.2-.85-3.11-2.08-4.27-4.51-6.24l29.01-1.13c-1.69,2.47-2.36,6.14-2.59,9.06-.9,11.18-1.94,69.71.86,77.32.95,2.58,1.54,4.27,4.76,6.68h-23.69Z"/>
      <path class="cls-1" d="M224.72,135.26h-23.54l-3.46-6.77c-12.68,14-40.32,12.85-42.91-9.04-1.06-9.02.93-16.09,6.84-22.84,9.66-11.02,24.03-10.21,34.81-19.14,1.16-.96,1.86-2.39,1.92-3.9.32-7.82,1.79-20.42-8.97-20.67s-12.74,12.72-5.72,19.54c-6.75,8.67-18.64,7.27-21.72-3.77-8.1-28.99,53.83-44.25,56.37-6.09.44,6.59-1.45,42.7,1.21,61.22.8,5.58,2.02,7.82,5.17,11.45ZM198.58,109.97v-21.77l-1.09.61c-6.5,3.95-15.12,7.72-19.06,14.64-11.37,19.99,17.89,28.83,20.14,6.52Z"/>
      <path class="cls-1" d="M558.86,36.34c43.45-3.92,47.94,67.05,23.63,90.05-12.28,11.62-32.23,11.83-43.88-.45-10.34-10.9-14.01-27.42-13.78-42.03.33-20.94,10.38-45.44,34.04-47.58ZM560.57,47.55c-13.07,1.67-12.73,26.93-12.85,36.41-.11,9.13-1.2,35.54,10.34,37.99,18.74,3.99,16.54-36.01,16.03-46.68-.38-7.94-1.07-29.31-13.52-27.72Z"/>
      <path class="cls-1" d="M355.39,127.92c-6.76,8.47-15.08,12.24-25.51,7.98-22.83-9.31-22.06-58.27-13.99-77.06,6.98-16.25,23.95-24.45,39.07-12.53l-.02-24.52c0-5.11-2.5-9.96-6.78-12.76l-.1-.06,30.08-7.99c-1.05,3.13-2.07,3.9-2.04,8.4v114.03c.9,6.43,2.43,7.52,6.07,11.86h-23.15s-3.62-7.34-3.62-7.34ZM343.62,52.9c-13.86,2.36-12.15,47.22-10.05,57.33,3.23,15.55,17.8,18.36,20.85,3.55,1.88-9.15,1.01-32.57.57-42.66-.33-7.58.47-20.23-11.36-18.22Z"/>
      <path class="cls-1" d="M437.43,135.26h34.33l-1.02-.86c-1.96-1.95-4.29-4.11-5.35-6.75-2.73-6.79-1.78-93.54-1.78-93.54v-17.9c-.04-4.49,1.98-12.49,3.16-15.24l-29.34,7.99.09.06c3.99,2.8,6.32,7.64,6.33,12.76l.02,24.52s.55,73.71-1.54,80.86c-1,3.4-2.01,5.1-4.9,8.11Z"/>
      <path class="cls-1" d="M482.87,135.26h34.33l-1.02-.86c-1.96-1.95-4.29-4.11-5.35-6.75-2.73-6.79-1.78-93.54-1.78-93.54v-17.9c-.04-4.49,1.98-12.49,3.16-15.24l-29.34,7.99.09.06c3.99,2.8,6.32,7.64,6.33,12.76l.02,24.52s.55,73.71-1.54,80.86c-1,3.4-2.01,5.1-4.9,8.11Z"/>
      <g>
        <g>
          <path class="cls-2" d="M138.9,5.8c.26.51.5,1.02.7,1.55l.52,1.48c.28,1.06.42,1.66.56,2.58l.1.85c.05.31,1.15,8.38-5.56,14.62,1.94,2.98,2.88,6.52,2.68,10.11-.53,9.28-8.5,16.39-17.78,15.88-.69-.04-1.38-.13-2.05-.25,2.68,2.44,6.15,3.94,9.9,4.15,8.86.52,16.45-6.29,16.96-15.14.21-3.65-.83-7.24-2.93-10.19,6.96-6.02,5.86-14.08,5.81-14.41l-.1-.82c-.13-.87-.26-1.41-.56-2.56l-.47-1.34c-1.3-3.36-3.86-6.38-7.01-8.29l-2.4-1.46,1.31,2.49c.13.24.23.5.33.75Z"/>
          <path class="cls-2" d="M152.5,152.01c0-2.73-.71-5.45-2.02-7.87-1.42-2.63-3.5-4.8-6.03-6.33,2.67-3.11,4.33-6.89,4.82-11,.66-5.5-.86-10.92-4.27-15.28-2.18-2.77-4.96-4.89-8.12-6.24,4,4.45,6.13,10.54,5.36,16.93-.48,3.96-2,7.63-4.44,10.72,2.31,1.56,4.21,3.66,5.55,6.14,1.37,2.53,2.1,5.37,2.11,8.24v2.48s-2.23-1.06-2.23-1.06c-2.19-1.04-4.53-1.72-6.96-2.01-.76-.09-1.55-.15-2.36-.16-4.91-.1-9.49.72-14.02,2.51-1.79.71-3.57,1.47-5.34,2.23-4.19,1.8-8.53,3.65-13.12,4.84-3.21.83-6.43,1.48-9.55,1.94-2.43.36-5.14.54-8.13.54-3.61,0-7.62-.26-12-.79-8.77-1.06-17.11-3.28-24.95-6.62,10.04,5.57,21.06,9.11,32.85,10.53,4.34.52,8.32.78,11.9.78,2.95,0,5.62-.18,8.02-.53,3.08-.45,6.27-1.1,9.47-1.92,4.53-1.17,8.84-3.01,13-4.8,1.78-.76,3.56-1.52,5.36-2.24,4.63-1.83,9.31-2.68,14.32-2.56.84.02,1.66.07,2.43.17,2.51.3,4.93,1,7.2,2.08l1.12.53v-1.24Z"/>
          <path class="cls-2" d="M38.39,73.44c-3.32,27.59,7.04,53.26,25.78,63.91-14.24-12.72-21.64-35.3-18.75-59.32,4.22-35.07,29.15-61.02,55.55-57.83,3.1.37,6.33.9,9.41,1.82-4.82-3.71-11.3-5.01-17.3-5.73-25.99-3.13-50.52,22.51-54.69,57.15Z"/>
        </g>
        <path class="cls-1" d="M114.21,123.18c-3.14,7.98-9.36,14.27-17.05,17.59-1.79.73-3.62,1.33-5.47,1.8-4.52,1.15-9.2,1.49-13.93.92-5.11-.62-9.91-2.25-14.31-4.74-18.72-10.6-30.09-36.69-26.62-65.49,4.28-35.55,29.54-61.75,56.42-58.51,8.27,1,17.15,3.03,22.18,10.35,2.43,3.54,3.04,8.24.85,12.05-.93,1.62-2.29,2.98-3.92,3.91-.51.29-4.84,2.16-5.19,1.4,2.3,4.96,7.19,8.52,13.02,8.85,8.43.48,15.65-5.97,16.13-14.41.22-3.86-1.01-7.46-3.22-10.27,7.34-5.85,6.1-14.19,6.1-14.19l-.09-.8c-.13-.85-.25-1.37-.53-2.42l-.46-1.32c-1.34-3.45-3.9-6.22-6.69-7.91.75,1.42,1.09,3.07.89,4.78-.51,4.22-4.17,7.29-8.35,7.14-.22.06-.99-.2-1.19-.27-4.01-1.43-7.29-3.25-12.92-5.45-5.2-2.03-11.57-3.74-19.3-4.67-14.05-1.69-27.64-.12-40.75,4.73-13.12,4.85-24.13,12.68-33.03,23.52C7.91,40.62,2.53,53.76.67,69.2c-1.88,15.6.18,29.71,6.18,42.34,6,12.63,14.8,22.82,26.4,30.56,11.6,7.74,24.51,12.47,38.71,14.18,7.88.95,14.45,1.04,19.71.26,3.08-.45,6.21-1.09,9.39-1.91,6.36-1.64,12.19-4.59,18.27-7,4.72-1.87,9.54-2.72,14.62-2.62.83.02,1.67.07,2.51.17,2.65.32,5.16,1.06,7.44,2.15,0-2.54-.63-5.11-1.92-7.5-1.56-2.88-3.88-5.08-6.57-6.5,2.82-2.99,4.75-6.89,5.28-11.29,1.32-10.94-6.48-20.87-17.42-22.19-3.04-.37-6-.03-8.72.89.1.26.18.52.27.78l.03.08c1.41,4.28,1.92,8.94,1.34,13.71-.33,2.76-1.01,5.4-1.98,7.87"/>
      </g>
      <circle class="cls-1" cx="407.48" cy="18.94" r="13.4"/>
      <path class="cls-1" d="M392.09,135.26c2.89-3.01,3.9-4.71,4.9-8.11,2.09-7.14,2.15-65.35,1-74.33-.68-5.3-1.16-7.41-4.81-9.48l27.7-1.13c-1.54,2.56-1.49,5.1-1.75,8.02-.92,10.54-1.79,70.63.93,77.42,1.06,2.64,3.38,4.8,5.35,6.75l1.02.86h-34.33Z"/>
    </g>
  </g>
</svg>